# xmcd
#
# Track frame offsets:
#	150
#	17860
#	31037
#	47076
#	66455
#	85326
#	103417
#	121315
#	144288
#	160103
#	177234
#	197990
#
# Disc length: 2791 seconds
#
# Revision: 0
# Processed by: cddbd v1.5.2PL0 Copyright (c) Steve Scherf et al.
# Submitted via: audiograbber 1.83.01
#
DISCID=a50ae50c
DTITLE=Skin Alley  - Bad Words And Evil People The Transatlantic Anthology 1972
DTITLE=73
DYEAR=2006
DGENRE=Rock
TTITLE0=If I  Only Had Time
TTITLE1=At A Quarter To One
TTITLE2=How Long ?
TTITLE3=Surprise Awakening
TTITLE4=Broken Eggs
TTITLE5=Maverick Woman Blues
TTITLE6=The Heap Turns Human
TTITLE7=What Good Does It Do ?
TTITLE8=Mr Heavy
TTITLE9=Instermental
TTITLE10=Broken Eggs ( single Version  )
TTITLE11=In The Midnight Hour
EXTD=2 disc set . cd 2 skin alley skintight castle music bad words and evil peo
EXTD=ple the transatlantic anthology 1972-73
EXTT0=
EXTT1=
EXTT2=
EXTT3=
EXTT4=
EXTT5=
EXTT6=
EXTT7=
EXTT8=
EXTT9=
EXTT10=bonus track
EXTT11=bonus track
PLAYORDER=
